<?xml version="1.0" standalone="no"?>
<!DOCTYPE svg PUBLIC "-//W3C//DTD SVG 20010904//EN"
 "http://www.w3.org/TR/2001/REC-SVG-20010904/DTD/svg10.dtd">
<svg version="1.0" xmlns="http://www.w3.org/2000/svg"
 width="166.000000pt" height="166.000000pt" viewBox="0 0 166.000000 166.000000"
 preserveAspectRatio="xMidYMid meet">

<g transform="translate(0.000000,166.000000) scale(0.100000,-0.100000)"
fill="#000000" stroke="none">
<path d="M0 830 l0 -830 830 0 830 0 0 830 0 830 -830 0 -830 0 0 -830z m940
540 c45 -45 21 -90 -85 -160 -27 -18 -60 -42 -72 -53 -33 -30 -38 -15 -15 45
12 29 26 72 33 96 23 82 93 118 139 72z m-10 -291 c68 -14 139 -65 167 -119
22 -41 23 -53 23 -260 0 -224 3 -240 42 -240 24 0 23 -13 -2 -35 -13 -11 -41
-20 -75 -23 -71 -6 -135 18 -173 64 l-28 34 -42 -39 c-51 -49 -105 -65 -190
-58 -108 8 -172 71 -172 169 0 59 35 116 90 150 25 15 90 39 145 52 138 35
149 45 153 135 3 64 1 73 -22 96 -29 29 -99 35 -132 10 -19 -14 -19 -14 3 -30
29 -20 46 -75 34 -107 -11 -30 -54 -66 -89 -75 -36 -9 -98 14 -122 45 -18 22
-21 37 -18 78 6 75 48 121 138 151 45 15 204 16 270 2z"/>
<path d="M815 731 c-75 -43 -85 -59 -91 -137 -5 -53 -2 -74 10 -89 15 -20 15
-20 53 1 58 32 85 93 81 183 l-3 71 -50 -29z"/>
</g>
</svg>
